<?xml version="1.0" encoding="UTF-8"?>
<!DOCTYPE svg PUBLIC "-//W3C//DTD SVG 1.1//EN" "http://www.w3.org/Graphics/SVG/1.1/DTD/svg11.dtd">
<!-- Creator: CorelDRAW 2020 (64-Bit) -->
<svg xmlns="http://www.w3.org/2000/svg" xml:space="preserve" width="41.7716mm" height="39.8809mm" version="1.1" style="shape-rendering:geometricPrecision; text-rendering:geometricPrecision; image-rendering:optimizeQuality; fill-rule:evenodd; clip-rule:evenodd"
viewBox="0 0 11.22 10.72"
 xmlns:xlink="http://www.w3.org/1999/xlink"
 xmlns:xodm="http://www.corel.com/coreldraw/odm/2003">
 <defs>
  <style type="text/css">
   <![CDATA[
    .fil0 {fill:white;fill-rule:nonzero}
   ]]>
  </style>
 </defs>
 <g id="Слой_x0020_1">
  <metadata id="CorelCorpID_0Corel-Layer"/>
  <path class="fil0" d="M10.87 3.8l-3.53 -0.3 -1.37 -3.26c-0.06,-0.14 -0.2,-0.24 -0.36,-0.24 -0.16,0 -0.3,0.09 -0.36,0.24l-1.37 3.26 -3.53 0.3c-0.16,0.01 -0.29,0.12 -0.34,0.27 -0.05,0.15 0,0.31 0.12,0.41l2.67 2.31 -0.8 3.44c-0.03,0.16 0.03,0.31 0.15,0.4 0.13,0.09 0.3,0.1 0.43,0.02l3.03 -1.83 3.03 1.83c0.06,0.04 0.13,0.06 0.2,0.06 0.08,0 0.16,-0.03 0.23,-0.07 0.13,-0.09 0.19,-0.25 0.15,-0.4l-0.8 -3.44 2.67 -2.31c0.12,-0.1 0.16,-0.27 0.12,-0.41 -0.05,-0.16 -0.18,-0.26 -0.34,-0.27l0 0z"/>
 </g>
</svg>
